#!OML:ASF F:\VICON\USERDATA\INSTALL\rory3\rory3.ASF
:FULLY-SPECIFIED
:DEGREES
1293
root -3.00338 18.6941 5.47239 -4.70967 -6.17742 2.01004
lowerback 6.01369 1.41071 -0.702912
upperback 0.70713 1.80668 -0.879675
thorax -2.63479 0.902843 -0.65861
lowerneck -11.1327 1.26756 -6.84151
upperneck 24.243 2.02473 4.94901
head 9.31835 0.864923 3.09814
rclavicle 3.05511e-014 -1.16289e-014
rhumerus -34.1439 -5.68703 -77.8201
rradius 26.2604
rwrist 17.6723
rhand -24.3643 2.33964
rfingers 7.12502
rthumb 2.12554 -27.6295
lclavicle 3.05511e-014 -1.16289e-014
lhumerus -30.9145 16.7865 75.3714
lradius 30.3711
lwrist -0.497795
lhand -29.2023 22.8288
lfingers 7.12502
lthumb -2.54704 52.7934
rfemur -0.355287 17.5922 23.1605
rtibia 24.2639
rfoot -17.6252 -8.88235
rtoes 4.09003
lfemur -14.7694 10.6177 -15.7925
ltibia 38.4039
lfoot -17.449 22.4266
ltoes 15.9737
1294
root -2.98508 18.6964 5.49774 -4.47345 -5.88458 1.7404
lowerback 5.92898 1.38333 -0.571917
upperback 0.602086 1.78017 -0.839265
thorax -2.69307 0.888506 -0.687759
lowerneck -11.2889 1.21491 -6.7586
upperneck 24.4368 1.9855 4.77954
head 9.42318 0.833548 3.02922
rclavicle 2.28552e-014 -1.00386e-014
rhumerus -34.3387 -5.91069 -77.7093
rradius 26.0224
rwrist 17.7575
rhand -24.521 2.1651
rfingers 7.12502
rthumb 1.97417 -27.8055
lclavicle 2.28552e-014 -1.00386e-014
lhumerus -30.7782 16.2096 75.6087
lradius 30.6564
lwrist -0.48721
lhand -28.8839 23.2309
lfingers 7.12502
lthumb -2.23956 53.1989
rfemur -0.299053 17.5273 23.3526
rtibia 23.9539
rfoot -17.6099 -9.0933
rtoes 4.21378
lfemur -14.5429 10.2639 -15.5364
ltibia 36.9899
lfoot -17.388 22.6554
ltoes 13.3787
1295
root -2.9621 18.6984 5.52642 -4.28543 -5.52091 1.69712
lowerback 5.79351 1.34618 -0.664699
upperback 0.541719 1.72612 -0.829957
thorax -2.68288 0.862742 -0.61921
lowerneck -11.4723 1.18514 -6.64299
upperneck 24.6535 2.01488 4.44689
head 9.54077 0.81867 2.90588
rclavicle -1.02188e-014 -7.55382e-015
rhumerus -34.4789 -6.1043 -77.5559
rradius 25.8198
rwrist 17.961
rhand -24.5061 1.9361
rfingers 7.12502
rthumb 1.98858 -28.0344
lclavicle -1.02188e-014 -7.55382e-015
lhumerus -30.7235 15.7678 75.8808
lradius 31.0512
lwrist -0.570671
lhand -29.1146 23.2697
lfingers 7.12502
lthumb -2.46234 53.2353
rfemur -0.195844 17.2703 23.2567
rtibia 23.6245
rfoot -17.6278 -9.15898
rtoes 4.32416
lfemur -14.243 9.89773 -15.5624
ltibia 35.6483
lfoot -17.6233 22.7745
ltoes 13.1216
1296
root -2.93836 18.7043 5.55502 -4.10457 -5.12331 1.73197
lowerback 5.66182 1.28529 -0.863965
upperback 0.486853 1.63351 -0.834489
thorax -2.67162 0.818907 -0.502377
lowerneck -11.6244 1.22374 -6.4149
upperneck 24.8603 2.14477 3.99595
head 9.6467 0.847212 2.73184
rclavicle 5.10162e-016 1.56046e-014
rhumerus -34.5393 -6.32503 -77.3918
rradius 25.5589
rwrist 18.0584
rhand -24.1815 1.69341
rfingers 7.12502
rthumb 2.30204 -28.2739
lclavicle 5.10162e-016 1.56046e-014
lhumerus -30.6582 15.5475 76.0822
lradius 31.3796
lwrist -0.79133
lhand -30.1038 23.4122
lfingers 7.12502
lthumb -3.41767 53.3646
rfemur -0.101795 17.0409 23.0728
rtibia 23.2841
rfoot -17.6157 -9.26848
rtoes 3.99788
lfemur -13.9575 9.50279 -15.6803
ltibia 34.4239
lfoot -18.2612 22.892
ltoes 14.8137
1297
root -2.91335 18.7102 5.58096 -3.87419 -4.71853 1.54894
lowerback 5.56744 1.2184 -0.832422
upperback 0.406079 1.54795 -0.800486
thorax -2.70221 0.77628 -0.477304
lowerneck -11.8313 1.25202 -6.27982
upperneck 25.0803 2.22196 3.79359
head 9.76584 0.869971 2.65579
rclavicle -2.16225e-014 2.17669e-014
rhumerus -34.6904 -6.4031 -77.334
rradius 25.4037
rwrist 17.8398
rhand -24.2487 1.5403
rfingers 7.12502
rthumb 2.23718 -28.4277
lclavicle -2.16225e-014 2.17669e-014
lhumerus -30.5968 15.258 76.2585
lradius 31.6522
lwrist -1.03477
lhand -31.2065 23.937
lfingers 7.12502
lthumb -4.4825 53.8696
rfemur -0.0711113 16.7811 23.1081
rtibia 22.9619
rfoot -17.6189 -9.37126
rtoes 3.62989
lfemur -13.8168 9.06527 -15.5579
ltibia 33.3198
lfoot -18.8458 23.1169
ltoes 16.4377
1298
root -2.88546 18.7136 5.60848 -3.60693 -4.35151 1.38366
lowerback 5.41015 1.17089 -0.787555
upperback 0.33125 1.48985 -0.77009
thorax -2.69092 0.747128 -0.464097
lowerneck -11.9758 1.25557 -6.39105
upperneck 25.1318 2.24389 3.8708
head 9.80804 0.878471 2.70809
rclavicle -1.15287e-014 2.61402e-014
rhumerus -34.8541 -6.55462 -77.2283
rradius 25.2826
rwrist 17.8792
rhand -24.388 1.64636
rfingers 7.12502
rthumb 2.10261 -28.323
lclavicle -1.15287e-014 2.61402e-014
lhumerus -30.5575 14.9567 76.4527
lradius 31.8896
lwrist -1.27632
lhand -31.7792 24.056
lfingers 7.12502
lthumb -5.0355 53.9762
rfemur 0.0255324 16.7226 23.1514
rtibia 22.5338
rfoot -17.5977 -9.64478
rtoes 3.34053
lfemur -13.8261 8.85941 -15.4838
ltibia 32.4262
lfoot -18.7567 23.488
ltoes 16.045
